<svg xmlns="http://www.w3.org/2000/svg" version="1.1" xmlns:xlink="http://www.w3.org/1999/xlink" xmlns:svgjs="http://svgjs.com/svgjs" width="371" height="371"><svg width="371" height="371" viewBox="0 0 371 371" fill="none" xmlns="http://www.w3.org/2000/svg">
<path d="M253.641 95.7084L253.675 95.6589L253.697 95.6026C255.031 92.143 261.681 85.3995 277.689 88.1375L277.697 88.1389L277.705 88.14C280.67 88.5495 285.728 91.0486 290.997 97.3635C296.253 103.663 301.694 113.736 305.434 129.219C306.155 134.704 307.883 151.843 309.036 176.683C309.067 177.359 309.096 178.069 309.123 178.809L293.638 188.094C293.549 184.5 293.479 180.692 293.433 176.654L293.433 176.65C293.192 164.255 292.47 147.389 290.994 132.643C290.256 125.271 289.329 118.418 288.177 112.916C287.601 110.164 286.967 107.741 286.269 105.754C285.578 103.79 284.812 102.214 283.95 101.173C281.057 96.8469 278.925 94.6292 277.261 93.497C276.421 92.9256 275.697 92.6286 275.054 92.4783C274.42 92.3301 273.885 92.3301 273.454 92.3302H273.443H273.427C272.337 92.3301 270.417 92.3301 268.494 93.4814C266.963 94.3978 265.482 96.0094 264.381 98.8009C263.358 98.5263 262.282 98.3796 261.171 98.3796C256.015 98.3796 251.602 101.538 249.886 105.99C250.081 102.932 251.092 99.3707 253.641 95.7084ZM293.668 189.242L309.163 179.951C309.191 180.8 309.217 181.686 309.242 182.604L293.743 191.898C293.716 191.026 293.691 190.141 293.668 189.242ZM310.226 182.014C310.2 181.096 310.173 180.211 310.144 179.363L313.441 177.386L314.344 179.545L310.226 182.014ZM293.778 193.042L309.273 183.751C309.302 184.843 309.33 185.977 309.359 187.148C309.566 195.473 309.82 205.697 310.652 216.087C311.883 231.453 314.383 247.313 319.918 258.125C322.087 262.363 324.326 266.243 327.944 269.316C331.571 272.396 336.54 274.631 344.116 275.677L344.31 275.704L344.471 275.592C345.975 274.542 347.383 273.045 348.185 271.071C348.86 269.41 349.095 267.438 348.624 265.156C349.295 265.258 349.982 265.311 350.681 265.311C356.654 265.311 361.721 261.439 363.497 256.072C363.445 259.732 362.674 264.493 360.655 269.037C357.748 275.581 352.276 281.633 342.667 283.329C338.071 283.891 330.251 283.256 322.241 278.532C314.236 273.811 306.005 264.983 300.625 249.095C298.327 242.31 294.947 229.887 293.778 193.042ZM350.681 264.311C349.888 264.311 349.113 264.237 348.361 264.097C348.332 263.997 348.302 263.898 348.271 263.798C347.903 262.624 348.26 261.341 349.207 260.013C350.152 258.688 351.641 257.388 353.375 256.24C355.105 255.095 357.054 254.118 358.892 253.429C360.496 252.827 361.989 252.455 363.164 252.368C362.891 259.009 357.408 264.311 350.681 264.311ZM363.165 251.365C361.839 251.452 360.217 251.864 358.541 252.492C356.635 253.207 354.619 254.218 352.823 255.406C351.033 256.592 349.436 257.971 348.393 259.433C347.409 260.812 346.878 262.328 347.244 263.833C342.015 262.344 338.188 257.541 338.188 251.848C338.188 244.965 343.78 239.384 350.681 239.384C357.42 239.384 362.911 244.706 363.165 251.365ZM261.171 120.85C256.839 120.85 253.101 118.432 251.288 114.92L251.418 114.79L264.412 101.826L264.51 101.728L264.543 101.594C264.683 101.039 264.833 100.521 264.994 100.039C269.218 101.552 272.221 105.5 272.221 110.115C272.221 116.03 267.287 120.85 261.171 120.85ZM261.171 99.3796C262.163 99.3796 263.125 99.5065 264.039 99.7444C263.885 100.206 263.741 100.696 263.608 101.216L251.19 113.604C250.777 112.744 250.375 111.578 250.121 110.181C250.121 110.159 250.121 110.137 250.121 110.115C250.121 104.199 255.055 99.3796 261.171 99.3796ZM117.303 95.6026L117.325 95.6589L117.359 95.7084C119.908 99.3706 120.919 102.932 121.114 105.99C119.398 101.538 114.985 98.3796 109.829 98.3796C108.718 98.3796 107.642 98.5263 106.619 98.8009C105.518 96.0094 104.037 94.3978 102.506 93.4814C100.583 92.3301 98.6629 92.3301 97.5731 92.3302H97.5575H97.5463C97.1147 92.3301 96.5795 92.3301 95.9458 92.4783C95.303 92.6286 94.5791 92.9256 93.7391 93.497C92.0748 94.6292 89.9431 96.8469 87.0503 101.173C86.1879 102.214 85.4215 103.79 84.731 105.754C84.0327 107.741 83.3986 110.164 82.8227 112.915C81.6708 118.418 80.7438 125.271 80.0061 132.643C78.5305 147.389 77.8082 164.255 77.5674 176.65L77.5674 176.654C77.5205 180.692 77.4511 184.5 77.3617 188.094L61.8769 178.809C61.9039 178.069 61.9327 177.359 61.9641 176.683C63.1168 151.843 64.8446 134.703 65.5662 129.219C69.3056 113.736 74.7474 103.663 80.0033 97.3635C85.2719 91.0486 90.3304 88.5495 93.2947 88.14L93.3027 88.1389L93.3106 88.1375C109.319 85.3995 115.969 92.143 117.303 95.6026ZM83.2139 192.769L82.3108 194.928L78.2399 192.487C78.2668 191.616 78.2925 190.731 78.3169 189.833L83.2139 192.769ZM77.3323 189.242C77.3086 190.141 77.2836 191.026 77.2574 191.898L61.7579 182.604C61.7832 181.686 61.8094 180.8 61.8373 179.951L77.3323 189.242ZM60.8565 179.363C60.8271 180.211 60.7999 181.096 60.7737 182.014L56.6558 179.545L57.5589 177.386L60.8565 179.363ZM61.727 183.751L77.222 193.042C76.0531 229.887 72.6727 242.31 70.3752 249.095C64.9951 264.983 56.7645 273.811 48.7586 278.532C40.7494 283.256 32.9288 283.891 28.3331 283.329C18.7236 281.633 13.252 275.581 10.3449 269.037C8.32606 264.493 7.55487 259.732 7.50279 256.072C9.27857 261.439 14.3461 265.311 20.3188 265.311C21.0181 265.311 21.705 265.258 22.3756 265.156C21.9055 267.438 22.1404 269.41 22.8152 271.071C23.6173 273.045 25.0253 274.542 26.5292 275.592L26.6899 275.704L26.8839 275.677C34.4603 274.631 39.4294 272.396 43.0561 269.316C46.6739 266.243 48.9126 262.363 51.0819 258.125C56.617 247.313 59.1174 231.453 60.3479 216.087C61.1799 205.697 61.434 195.473 61.641 187.148C61.6701 185.977 61.6982 184.843 61.727 183.751ZM20.3188 264.311C13.5924 264.311 8.10925 259.009 7.83605 252.368C9.01148 252.455 10.5036 252.827 12.1081 253.429C13.9464 254.118 15.8947 255.095 17.6246 256.24C19.359 257.388 20.8477 258.688 21.7931 260.013C22.7398 261.341 23.0967 262.624 22.7291 263.798C22.6977 263.898 22.6676 263.997 22.6388 264.097C21.8871 264.237 21.1116 264.311 20.3188 264.311ZM7.83457 251.365C8.08873 244.706 13.5798 239.384 20.3188 239.384C27.2198 239.384 32.8122 244.965 32.8122 251.848C32.8122 257.541 28.9853 262.344 23.7564 263.833C24.1217 262.328 23.5912 260.812 22.6072 259.433C21.5645 257.971 19.9672 256.592 18.1766 255.406C16.3814 254.218 14.3655 253.207 12.4592 252.492C10.7828 251.864 9.16146 251.452 7.83457 251.365ZM120.879 110.115C120.879 110.137 120.879 110.159 120.879 110.181C120.625 111.578 120.223 112.744 119.81 113.604L107.392 101.216C107.259 100.696 107.115 100.206 106.961 99.7444C107.875 99.5065 108.837 99.3796 109.829 99.3796C115.945 99.3796 120.879 104.199 120.879 110.115ZM106.006 100.039C106.167 100.521 106.317 101.039 106.457 101.594L106.49 101.728L106.588 101.826L119.582 114.79L119.712 114.92C117.899 118.432 114.161 120.85 109.829 120.85C103.713 120.85 98.7793 116.03 98.7793 110.115C98.7793 105.5 101.782 101.552 106.006 100.039Z" fill="#3D1519" stroke="#3D1519"></path>
</svg><style>@media (prefers-color-scheme: light) { :root { filter: none; } }
@media (prefers-color-scheme: dark) { :root { filter: invert(100%); } }
</style></svg>